<svg width="142" height="120" viewBox="0 0 142 120" fill="none" xmlns="http://www.w3.org/2000/svg">
<path d="M75.2325 32.9828L75.2168 49.7881C75.2718 72.7159 56.4856 91.4286 33.5431 91.405C24.4289 91.3893 16.1319 88.6264 9.40625 83.7912C21.4668 105.392 44.6058 119.984 70.9111 120C106.739 120 135.732 94.113 140.462 52.8886C141.098 47.3549 141.719 39.6626 141.514 32.3313C141.012 14.3565 126.46 -0.0469805 108.318 0.000115164C90.0901 -0.0234327 75.1775 14.7489 75.2325 32.9828Z" fill="url(#paint0_linear_12737_48775)"/>
<path d="M33.4998 82.8251C51.751 82.8251 66.5465 68.0442 66.5465 49.811C66.5465 31.5778 51.751 16.7969 33.4998 16.7969C15.2486 16.7969 0.453125 31.5778 0.453125 49.811C0.453125 68.0442 15.2486 82.8251 33.4998 82.8251Z" fill="#0B23A9"/>
<defs>
<linearGradient id="paint0_linear_12737_48775" x1="40.1901" y1="118.752" x2="115.575" y2="34.9026" gradientUnits="userSpaceOnUse">
<stop stop-color="#09DBF0"/>
<stop offset="1" stop-color="#0B23A9"/>
</linearGradient>
</defs>
</svg>
